<?xml version="1.0" encoding="UTF-8"?>
<svg id="Layer_1" data-name="Layer 1" xmlns="http://www.w3.org/2000/svg" viewBox="0 0 45 45">
  <defs>
    <style>
      .cls-1 {
        fill: #fff;
      }
    </style>
  </defs>
  <polygon class="cls-1" points="32.88 6.59 26.7 5.11 17.11 9.74 23.14 11.19 32.88 6.59"/>
  <polygon class="cls-1" points="5.96 7.06 11.18 8.32 21.02 3.75 15.42 2.41 5.96 7.06"/>
  <polygon class="cls-1" points="45 9.5 38.59 7.96 29.1 12.61 35.16 14.07 45 9.5"/>
  <polygon class="cls-1" points="41.09 15.49 44.3 16.26 44.98 13.61 41.09 15.49"/>
  <path class="cls-1" d="M9.71,1.04L5.91.13C3.58-.43,1.22.93.64,3.17l-.64,2.46L9.71,1.04Z"/>
  <path class="cls-1" d="M0,16.34v24.52c0,2.29,1.85,4.14,4.14,4.14h36.72c2.29,0,4.14-1.85,4.14-4.14v-24.52H0ZM41,38c0,2.21-1.79,4-4,4H8c-2.21,0-4-1.79-4-4v-14c0-2.21,1.79-4,4-4h29c2.21,0,4,1.79,4,4v14Z"/>
</svg>