<?xml version="1.0" encoding="UTF-8"?>
<svg id="Layer_1" data-name="Layer 1" xmlns="http://www.w3.org/2000/svg" viewBox="0 0 512 512">
  <defs>
    <style>
      .cls-1 {
        fill: #fff;
      }
    </style>
  </defs>
  <path class="cls-1" d="M256,46.5c55.96,0,108.57,21.79,148.14,61.36,39.57,39.57,61.36,92.18,61.36,148.14s-21.79,108.57-61.36,148.14-92.18,61.36-148.14,61.36-108.57-21.79-148.14-61.36c-39.57-39.57-61.36-92.18-61.36-148.14s21.79-108.57,61.36-148.14c39.57-39.57,92.18-61.36,148.14-61.36M256,0C114.62,0,0,114.62,0,256s114.62,256,256,256,256-114.62,256-256S397.38,0,256,0h0Z"/>
  <polygon class="cls-1" points="256.47 104.53 293.98 220 415.39 220 317.17 291.36 354.69 406.83 256.47 335.47 158.25 406.83 195.76 291.36 97.54 220 218.95 220 256.47 104.53"/>
</svg>