<?xml version="1.0" encoding="UTF-8"?>
<svg id="Layer_1" data-name="Layer 1" xmlns="http://www.w3.org/2000/svg" viewBox="0 0 270.81 511.14">
  <defs>
    <style>
      .cls-1 {
        fill: #fff;
      }
    </style>
  </defs>
  <path class="cls-1" d="M85.84,10.43c-17.47-4.86-35.87-7.53-35.87-7.53-9.83-1.42-16.43-1.9-16.45-1.91h0C28.12.53,22.41.2,16.42.07,12.13-.03,7.99-.02,4,.08c-.06,15.49-.13,30.99-.19,46.48,16.59-.7,41.17.07,69.35,8.03,17.11,4.83,78.46,23.13,118.85,82.49,36.98,54.36,42.2,122.31,24.64,176.78-27.42,85.03-113.2,145.87-214.64,150.22-.67,15.67-1.33,31.33-2,47,23.01.49,99.88-.73,171-56,64.62-50.22,85.47-114.74,89.69-128.7,3.44-11.38,34.75-121.45-33.69-218.3,0,0-51.35-72.66-141.16-97.65Z"/>
</svg>