<?xml version="1.0" encoding="UTF-8"?>
<svg id="Layer_1" data-name="Layer 1" xmlns="http://www.w3.org/2000/svg" viewBox="0 0 453.81 511.14">
  <defs>
    <style>
      .cls-1 {
        fill: #fff;
      }
    </style>
  </defs>
  <path class="cls-1" d="M268.84,10.43c-17.47-4.86-35.87-7.53-35.87-7.53-9.83-1.42-16.43-1.9-16.45-1.91h0c-5.4-.47-11.1-.79-17.09-.93-4.29-.1-8.43-.09-12.42,0-.06,15.49-.13,30.99-.19,46.48,16.59-.7,41.17.07,69.35,8.03,17.11,4.83,78.46,23.13,118.85,82.49,53.86,79.16,27.38,168.1,24.64,176.78-28.19,89.28-118.72,156.29-214.64,150.22-79.29-5.01-130.24-57.92-143-72L0,422.08c11.56,12.99,79.29,86.61,189,89,83.02,1.81,142.16-38.25,165-56,64.63-50.23,85.46-114.72,89.69-128.7,3.44-11.38,34.75-121.45-33.69-218.3,0,0-51.35-72.66-141.16-97.65Z"/>
</svg>