<?xml version="1.0" encoding="UTF-8"?>
<svg id="Layer_1" data-name="Layer 1" xmlns="http://www.w3.org/2000/svg" viewBox="0 0 512.4 511.13">
  <defs>
    <style>
      .cls-1 {
        fill: #fff;
      }
    </style>
  </defs>
  <path class="cls-1" d="M327.43,10.43c-17.47-4.86-35.87-7.53-35.87-7.53-9.83-1.42-16.43-1.9-16.45-1.91h0c-5.4-.47-11.1-.79-17.09-.93-4.29-.1-8.43-.09-12.42,0-.06,15.49-.13,30.99-.19,46.48,16.59-.7,41.17.07,69.35,8.03,17.11,4.83,78.46,23.13,118.85,82.49,53.89,79.21,27.35,168.2,24.64,176.78-28.58,90.37-120.25,155.67-214.64,150.22-80.93-4.67-131.97-59.51-143-72-55.31-62.61-54.53-135.27-54-151H.59c-1.33,18.44-5.6,105.38,58,181,71.37,84.86,172.03,88.65,189,89,82.92,1.71,141.85-37.98,165-56,64.83-50.45,85.67-115.43,89.69-128.7,3.44-11.38,34.75-121.45-33.69-218.3,0,0-51.35-72.66-141.16-97.65Z"/>
</svg>