<?xml version="1.0" encoding="UTF-8"?>
<svg id="Layer_1" data-name="Layer 1" xmlns="http://www.w3.org/2000/svg" viewBox="0 0 512 512">
  <defs>
    <style>
      .cls-1, .cls-2 {
        fill: #fff;
      }

      .cls-2 {
        stroke-width: 4px;
      }

      .cls-2, .cls-3 {
        stroke: #26374a;
        stroke-miterlimit: 10;
      }

      .cls-4 {
        fill: #26374a;
      }

      .cls-3 {
        fill: none;
        stroke-width: 5px;
      }
    </style>
  </defs>
  <g id="Red_Background" data-name="Red Background">
    <path class="cls-4" d="M512,512H0V0h512v512Z"/>
  </g>
  <path id="Maple_Leaf_Left_Path" data-name="Maple Leaf Left Path" class="cls-1" d="M256.5,491h-23.99c4.92-31.58,9.84-63.17,14.76-94.75-28.91,6.13-57.83,12.27-86.74,18.4,6.46-13.8,12.92-27.6,19.38-41.4,1.31-1.61,1.67-3.73.92-5.52-.76-1.81-2.35-2.58-2.77-2.76-49.52-23.92-99.05-47.84-148.57-71.75,5.54-3.07,11.07-6.13,16.61-9.2,1.2-.86,3.27-2.61,4.61-5.52,2.59-5.6.42-10.97,0-11.96-6.46-22.08-12.92-44.16-19.38-66.23,19.69,4.29,39.37,8.59,59.06,12.88,2.61.79,5.45.08,7.38-1.84s2.64-4.76,1.85-7.36c-2.15-11.96-4.31-23.92-6.46-35.88,23.38,16.56,46.75,33.12,70.13,49.68,3.86,2.24,8.54,2.26,12,0,4.47-2.92,6.24-9.21,3.69-14.72-11.69-42.01-23.38-84.02-35.07-126.03,19.42,10,38.83,20.01,58.25,30.01.78.34,5.49,2.27,10.67,0,4.52-1.98,6.37-5.83,6.79-6.77,12.29-26.76,24.58-53.52,36.87-80.27v471Z"/>
  <path id="Airplane_Path" data-name="Airplane Path" class="cls-1" d="M287.61,39c-5.08-5.4-12.63-12.4-23.11-19,.33,157,.67,314,1,471,4.35-.08,11.94-.82,20.09-5,4.94-2.53,8.57-5.56,11.05-8,8.86-.69,16.08-.92,21.1-1,3.5-.06,4.3,0,19.09,0h40.19c.18.02,1.78.23,3.01-1s1.03-2.83,1-3v-2c.05-.38.29-2.27-1-4-1.08-1.45-2.57-1.89-3.01-2-2.79-1.08-7.38-2.85-13.06-5-14.43-5.46-21.49-7.82-35.16-13-7.03-2.67-14.06-5.33-21.1-8,5.55-30.71,10.63-62.73,15.07-96,3.14-23.55,5.8-46.56,8.04-69h74.34c23.54.28,47.08.55,70.63.83.46,0,1.59-.07,2.71-.83,1.54-1.04,1.93-2.63,2.01-3,.3-1.65,1.01-6.34-.52-10.33-.22-.58-.62-1.58-1.48-2.67-1.37-1.73-3.04-2.59-4.02-3-23.78-10.67-47.55-21.33-71.33-32-23.78-10.33-47.55-20.67-71.33-31,.48-8.21.71-18.76,0-31-.65-11.23-2.22-26.01-6.03-43-2.34-10.42-4.95-21.81-11.05-36-3.79-8.82-7.45-15.26-9.04-18-3.78-6.48-9.04-15.38-18.08-25Z"/>
  <g id="Group_of_Red_Remove" data-name="Group of Red Remove">
    <path id="End_Wing_Path" data-name="End Wing Path" class="cls-3" d="M313,431.5c-.61.68-1.36,1.67-2,3-.55,1.14-.84,2.19-1,3-3.67,12.33-7.33,24.67-11,37-.18.8-.39,2.25,0,4,.45,2.01,1.45,3.36,2,4"/>
    <path id="Main_Wing_Path" data-name="Main Wing Path" class="cls-3" d="M336,188.5c-1.25,1.17-2.33,2.67-2.5,4.5-.05.52,0,.92,0,1,.16,1.8-.25,25.26-1.5,80.5.07,1.28.31,3.03,1,5,.6,1.69,1.35,3.02,2,4"/>
    <path id="Window_Path" data-name="Window Path" class="cls-2" d="M262.5,45h10c1.09-.01,2.95.11,5,1,2.79,1.21,4.33,3.14,5,4,2.49,3.2,2.86,6.59,3,8,.18,1.84-.21,3.9-1,8-.88,4.6-1.47,5.45-2,6-1.47,1.53-3.49,2-6,2h-14v-29Z"/>
  </g>
</svg>