<?xml version="1.0" encoding="UTF-8"?>
<svg id="Layer_1" data-name="Layer 1" xmlns="http://www.w3.org/2000/svg" viewBox="0 0 500 250">
  <defs>
    <style>
      .cls-1 {
        stroke: red;
      }

      .cls-1, .cls-2, .cls-3 {
        fill: red;
      }

      .cls-1, .cls-4, .cls-3 {
        stroke-miterlimit: 10;
      }

      .cls-5 {
        fill: #fff;
      }

      .cls-6 {
        fill: none;
      }

      .cls-4 {
        fill: #26374a;
        stroke-width: 1.93px;
      }

      .cls-4, .cls-3 {
        stroke: #fff;
      }

      .cls-3 {
        stroke-width: 1.55px;
      }
    </style>
  </defs>
  <rect class="cls-5" width="500" height="250"/>
  <g id="Red_Background" data-name="Red Background">
    <path class="cls-6" d="M352.25,224h-198V26h198v198Z"/>
  </g>
  <path id="Maple_Leaf_Left_Path" data-name="Maple Leaf Left Path" class="cls-1" d="M253.44,215.88h-9.28c1.9-12.21,3.81-24.43,5.71-36.64-11.18,2.37-22.36,4.74-33.54,7.12,2.5-5.34,5-10.67,7.49-16.01.5-.62.65-1.44.36-2.13-.29-.7-.91-1-1.07-1.07-19.15-9.25-38.3-18.5-57.45-27.75,2.14-1.19,4.28-2.37,6.42-3.56.46-.33,1.26-1.01,1.78-2.13,1-2.17.16-4.24,0-4.62-2.5-8.54-5-17.08-7.49-25.61,7.61,1.66,15.23,3.32,22.84,4.98,1.01.31,2.11.03,2.85-.71s1.02-1.84.71-2.85c-.83-4.62-1.67-9.25-2.5-13.87,9.04,6.4,18.08,12.81,27.12,19.21,1.49.87,3.3.87,4.64,0,1.73-1.13,2.41-3.56,1.43-5.69-4.52-16.25-9.04-32.49-13.56-48.74,7.51,3.87,15.02,7.74,22.53,11.6.3.13,2.12.88,4.13,0,1.75-.77,2.46-2.26,2.63-2.62,4.75-10.35,9.5-20.7,14.26-31.04v182.14Z"/>
  <path id="Airplane_Path" data-name="Airplane Path" class="cls-1" d="M265.47,41.08c-1.96-2.09-4.88-4.8-8.94-7.35.13,60.71.26,121.43.39,182.14,1.68-.03,4.62-.32,7.77-1.93,1.91-.98,3.32-2.15,4.27-3.09,3.43-.27,6.22-.36,8.16-.39,1.35-.02,1.66,0,7.38,0h15.54c.07,0,.69.09,1.17-.39s.4-1.09.39-1.16v-.77c.02-.15.11-.88-.39-1.55-.42-.56-.99-.73-1.17-.77-1.08-.42-2.85-1.1-5.05-1.93-5.58-2.11-8.31-3.02-13.6-5.03-2.72-1.03-5.44-2.06-8.16-3.09,2.15-11.88,4.11-24.26,5.83-37.12,1.21-9.11,2.24-18.01,3.11-26.68h28.75c9.1.11,18.21.21,27.31.32.18,0,.62-.03,1.05-.32.59-.4.75-1.02.78-1.16.12-.64.39-2.45-.2-3.99-.09-.22-.24-.61-.57-1.03-.53-.67-1.17-1-1.55-1.16-9.19-4.13-18.39-8.25-27.58-12.38-9.19-4-18.39-7.99-27.58-11.99.18-3.17.27-7.25,0-11.99-.25-4.34-.86-10.06-2.33-16.63-.9-4.03-1.91-8.43-4.27-13.92-1.47-3.41-2.88-5.9-3.5-6.96-1.46-2.5-3.5-5.95-6.99-9.67Z"/>
  <g id="Group_of_Red_Remove" data-name="Group of Red Remove">
    <path id="End_Wing_Path" data-name="End Wing Path" class="cls-4" d="M273.29,192.87c-.23.26-.53.65-.77,1.16-.21.44-.32.85-.39,1.16-1.42,4.77-2.84,9.54-4.25,14.31-.07.31-.15.87,0,1.55.17.78.56,1.3.77,1.55"/>
    <path id="Main_Wing_Path" data-name="Main Wing Path" class="cls-4" d="M282.18,98.9c-.48.45-.9,1.03-.97,1.74-.02.2,0,.35,0,.39.06.7-.09,9.77-.58,31.13.03.5.12,1.17.39,1.93.23.65.52,1.17.77,1.55"/>
    <path id="Window_Path" data-name="Window Path" class="cls-3" d="M255.76,43.4h3.87c.42,0,1.14.04,1.93.39,1.08.47,1.67,1.21,1.93,1.55.96,1.24,1.11,2.55,1.16,3.09.07.71-.08,1.51-.39,3.09-.34,1.78-.57,2.11-.77,2.32-.57.59-1.35.77-2.32.77h-5.41v-11.21Z"/>
  </g>
  <rect class="cls-2" width="130" height="250"/>
  <rect class="cls-2" x="370" width="130" height="250"/>
</svg>