<?xml version="1.0" encoding="UTF-8"?>
<svg id="Layer_1" xmlns="http://www.w3.org/2000/svg" version="1.1" viewBox="0 0 512 512">
  <!-- Generator: Adobe Illustrator 29.1.0, SVG Export Plug-In . SVG Version: 2.1.0 Build 142)  -->
  <defs>
    <style>
      .st0 {
        fill: #fff;
      }

      .st1 {
        fill: red;
      }
    </style>
  </defs>
  <g id="Red_Background">
    <path class="st1" d="M513,512H1V0h512v512Z"/>
  </g>
  <g id="Maple_Leaf_Halves">
    <path id="Maple_Leaf_Right" class="st0" d="M257,492h-23.89c4.9-31.54,9.8-63.09,14.7-94.63-28.79,6.12-57.57,12.25-86.36,18.37,6.43-13.78,12.86-27.56,19.29-41.34,1.3-1.61,1.66-3.72.92-5.51-.75-1.81-2.34-2.57-2.76-2.76-49.3-23.89-98.61-47.77-147.91-71.66,5.51-3.06,11.02-6.12,16.54-9.19,1.19-.86,3.25-2.6,4.59-5.51,2.58-5.59.42-10.96,0-11.94-6.43-22.05-12.86-44.1-19.29-66.15,19.6,4.29,39.2,8.57,58.8,12.86,2.6.79,5.43.08,7.35-1.84s2.63-4.75,1.84-7.35c-2.14-11.94-4.29-23.89-6.43-35.83,23.27,16.54,46.55,33.07,69.82,49.61,3.84,2.24,8.5,2.26,11.94,0,4.45-2.92,6.21-9.2,3.67-14.7-11.64-41.96-23.27-83.91-34.91-125.87,19.33,9.99,38.66,19.98,57.99,29.97.78.34,5.46,2.27,10.62,0,4.5-1.98,6.34-5.83,6.76-6.76,12.23-26.72,24.47-53.45,36.7-80.17v470.39Z"/>
    <path id="Maple_Leaf_Left" class="st0" d="M257,492h23.89c-4.9-31.54-9.8-63.09-14.7-94.63,28.79,6.12,57.57,12.25,86.36,18.37-6.43-13.78-12.86-27.56-19.29-41.34-1.3-1.61-1.66-3.72-.92-5.51.75-1.81,2.34-2.57,2.76-2.76,49.3-23.89,98.61-47.77,147.91-71.66-5.51-3.06-11.02-6.12-16.54-9.19-1.19-.86-3.25-2.6-4.59-5.51-2.58-5.59-.42-10.96,0-11.94,6.43-22.05,12.86-44.1,19.29-66.15-19.6,4.29-39.2,8.57-58.8,12.86-2.6.79-5.43.08-7.35-1.84s-2.63-4.75-1.84-7.35c2.14-11.94,4.29-23.89,6.43-35.83-23.27,16.54-46.55,33.07-69.82,49.61-3.84,2.24-8.5,2.26-11.94,0-4.45-2.92-6.21-9.2-3.67-14.7,11.64-41.96,23.27-83.91,34.91-125.87-19.33,9.99-38.66,19.98-57.99,29.97-.78.34-5.46,2.27-10.62,0-3.79-1.67-5.79-5-6.76-6.76-4.17-7.58-18.31-38.22-36.7-80.17v470.39Z"/>
  </g>
</svg>