<?xml version="1.0" encoding="UTF-8"?>
<svg xmlns="http://www.w3.org/2000/svg" version="1.1" viewBox="0 0 512 512">
  <!-- Generator: Adobe Illustrator 29.1.0, SVG Export Plug-In . SVG Version: 2.1.0 Build 142)  -->
  <defs>
    <style>
      .st0, .st1 {
        fill: #fff;
      }

      .st2 {
        fill: red;
      }

      .st1 {
        font-family: MS-Gothic, 'MS Gothic';
        font-size: 135.64px;
      }
    </style>
  </defs>
  <g id="Background">
    <g id="Red_Background">
      <path class="st2" d="M512,512H0V0h512v512Z"/>
    </g>
  </g>
  <g id="Maple_Leaf">
    <g id="Maple_Leaf_Halves">
      <path id="Maple_Leaf_Right" class="st0" d="M451.91,102h-4.18c.86-5.52,1.72-11.05,2.57-16.57-5.04,1.07-10.08,2.15-15.13,3.22l3.38-7.24c.23-.28.29-.65.16-.97-.13-.32-.41-.45-.48-.48-8.64-4.18-17.27-8.37-25.91-12.55.97-.54,1.93-1.07,2.9-1.61.21-.15.57-.46.8-.97.45-.98.07-1.92,0-2.09-1.13-3.86-2.25-7.72-3.38-11.59,3.43.75,6.87,1.5,10.3,2.25.45.14.95.01,1.29-.32s.46-.83.32-1.29c-.38-2.09-.75-4.18-1.13-6.28,4.08,2.9,8.15,5.79,12.23,8.69.67.39,1.49.4,2.09,0,.78-.51,1.09-1.61.64-2.57-2.04-7.35-4.08-14.7-6.11-22.04,3.39,1.75,6.77,3.5,10.16,5.25.14.06.96.4,1.86,0,.79-.35,1.11-1.02,1.18-1.18,2.14-4.68,4.29-9.36,6.43-14.04v82.39Z"/>
      <path id="Maple_Leaf_Left" class="st0" d="M451.91,102h4.18c-.86-5.52-1.72-11.05-2.57-16.57,5.04,1.07,10.08,2.15,15.13,3.22l-3.38-7.24c-.23-.28-.29-.65-.16-.97.13-.32.41-.45.48-.48,8.64-4.18,17.27-8.37,25.91-12.55-.97-.54-1.93-1.07-2.9-1.61-.21-.15-.57-.46-.8-.97-.45-.98-.07-1.92,0-2.09l3.38-11.59c-3.43.75-6.87,1.5-10.3,2.25-.45.14-.95.01-1.29-.32s-.46-.83-.32-1.29c.38-2.09.75-4.18,1.13-6.28-4.08,2.9-8.15,5.79-12.23,8.69-.67.39-1.49.4-2.09,0-.78-.51-1.09-1.61-.64-2.57,2.04-7.35,4.08-14.7,6.11-22.04-3.39,1.75-6.77,3.5-10.16,5.25-.14.06-.96.4-1.86,0-.66-.29-1.01-.88-1.18-1.18-.73-1.33-3.21-6.69-6.43-14.04v82.39Z"/>
    </g>
    <text class="st1" transform="translate(19.64 327.57)"><tspan x="0" y="0">TRAVEL</tspan><tspan x="0" y="162.77">CANADA</tspan></text>
  </g>
</svg>